<?xml version="1.0" encoding="UTF-8" standalone="no"?><!-- Generator: Gravit.io --><svg xmlns="http://www.w3.org/2000/svg" xmlns:xlink="http://www.w3.org/1999/xlink" style="isolation:isolate" viewBox="980.657 -635.5 2222.004 2496.66" width="2222.004pt" height="2496.66pt"><path d=" M 2304.972 -349.391 L 2818.34 -52.98 C 2833.162 -68.662 2850.17 -82.122 2868.839 -92.941 C 2975.304 -154.151 3111.106 -117.809 3172.949 -11.335 C 3234.158 95.139 3197.816 230.932 3091.343 292.775 C 3072.813 303.446 3052.845 311.397 3032.052 316.384 L 3032.052 909.424 C 3052.618 914.419 3072.368 922.316 3090.709 932.876 C 3197.816 994.719 3234.158 1130.521 3172.315 1236.995 C 3111.106 1343.46 2974.67 1379.802 2868.197 1318.601 C 2847.57 1306.767 2828.988 1291.682 2813.167 1273.927 L 2302.923 1568.516 C 2310.396 1591.142 2314.191 1614.82 2314.163 1638.648 C 2314.163 1761.057 2214.712 1861.16 2091.66 1861.16 C 1968.608 1861.16 1869.156 1761.691 1869.156 1638.648 C 1869.156 1616.775 1872.298 1595.648 1878.157 1575.694 L 1364.927 1279.369 C 1350.268 1294.74 1333.499 1307.95 1315.123 1318.601 C 1208.015 1379.802 1072.213 1343.46 1011.004 1236.995 C 949.803 1130.521 986.145 994.719 1092.61 932.876 C 1110.951 922.314 1130.701 914.414 1151.268 909.415 L 1151.268 316.384 C 1130.474 311.397 1110.506 303.446 1091.977 292.775 C 985.503 231.575 949.161 95.139 1010.37 -11.335 C 1071.579 -117.809 1208.007 -154.151 1314.48 -92.941 C 1333.047 -82.179 1349.972 -68.806 1364.736 -53.232 L 1878.252 -349.721 C 1872.199 -370.267 1869.135 -391.577 1869.156 -412.996 C 1869.156 -536.031 1968.608 -635.5 2091.66 -635.5 C 2214.712 -635.5 2314.163 -536.039 2314.163 -412.996 C 2314.163 -390.88 2310.952 -369.537 2304.972 -349.391 Z  M 2251.487 -258.064 L 2766.08 39.042 C 2749.524 96.914 2757.157 159.027 2787.232 211.169 C 2818.557 265.66 2869.585 301.785 2926.22 315.863 L 2926.22 909.641 C 2923.33 910.344 2920.457 911.116 2917.601 911.932 L 2245.507 -252.118 C 2247.538 -254.062 2249.534 -256.041 2251.487 -258.055 L 2251.487 -258.064 Z  M 1937.951 -251.988 L 1265.865 912.045 C 1262.959 911.205 1260.037 910.423 1257.099 909.701 L 1257.099 315.863 C 1313.734 301.785 1364.762 265.66 1396.087 211.169 C 1426.223 158.925 1433.827 96.674 1417.152 38.712 L 1931.598 -258.307 C 1933.672 -256.163 1935.79 -254.054 1937.951 -251.997 L 1937.951 -251.988 Z  M 2153.832 -199.259 L 2825.762 964.514 C 2810.37 979.2 2797.177 996.03 2786.59 1014.483 C 2776.03 1032.823 2768.133 1052.574 2763.138 1073.14 L 1420.199 1073.14 C 1415.197 1052.573 1407.295 1032.823 1396.729 1014.483 C 1386.105 996.157 1372.937 979.43 1357.618 964.8 L 2029.678 -199.207 C 2049.827 -193.405 2070.692 -190.472 2091.66 -190.492 C 2113.246 -190.492 2134.103 -193.548 2153.832 -199.259 Z  M 2256.209 1488.749 L 2767.46 1193.571 C 2765.928 1188.752 2764.558 1183.883 2763.355 1178.971 L 1419.913 1178.971 C 1419.201 1181.862 1418.428 1184.726 1417.604 1187.582 L 1931.354 1484.21 C 1973.277 1440.618 2031.18 1416.032 2091.66 1416.144 C 2154.299 1416.034 2214.067 1442.406 2256.209 1488.749 L 2256.209 1488.749 Z " fill-rule="evenodd" fill="rgb(229,53,171)"/><g><path d=" M 3144 613.045 C 3144 473.619 2969.396 341.487 2701.7 259.547 C 2763.476 -13.297 2736.02 -230.372 2615.041 -299.87 C 2587.156 -316.172 2554.552 -323.894 2518.945 -323.894 L 2518.945 -228.227 C 2538.679 -228.227 2554.552 -224.366 2567.851 -217.073 C 2626.195 -183.611 2651.506 -56.198 2631.772 107.681 C 2627.053 148.007 2619.331 190.478 2609.893 233.807 C 2525.809 213.215 2434.003 197.342 2337.477 187.046 C 2279.562 107.681 2219.502 35.609 2159.013 -27.455 C 2298.867 -157.442 2430.142 -228.656 2519.374 -228.656 L 2519.374 -324.323 C 2401.399 -324.323 2246.958 -240.239 2090.802 -94.379 C 1934.645 -239.381 1780.205 -322.607 1662.229 -322.607 L 1662.229 -226.94 C 1751.033 -226.94 1882.736 -156.155 2022.59 -27.026 C 1962.53 36.038 1902.47 107.681 1845.413 187.046 C 1748.459 197.342 1656.652 213.215 1572.568 234.236 C 1562.701 191.336 1555.408 149.723 1550.26 109.826 C 1530.097 -54.053 1554.979 -181.466 1612.894 -215.357 C 1625.764 -223.079 1642.495 -226.511 1662.229 -226.511 L 1662.229 -322.178 C 1626.193 -322.178 1593.589 -314.456 1565.275 -298.154 C 1444.726 -228.656 1417.698 -12.01 1479.904 259.976 C 1213.065 342.345 1039.319 474.048 1039.319 613.045 C 1039.319 752.47 1213.923 884.602 1481.62 966.542 C 1419.843 1239.387 1447.3 1456.461 1568.278 1525.959 C 1596.163 1542.262 1628.767 1549.984 1664.803 1549.984 C 1782.779 1549.984 1937.219 1465.899 2093.376 1320.039 C 2249.532 1465.041 2403.973 1548.268 2521.948 1548.268 C 2557.984 1548.268 2590.588 1540.545 2618.902 1524.243 C 2739.452 1454.745 2766.479 1238.1 2704.274 966.113 C 2970.254 884.173 3144 752.041 3144 613.045 L 3144 613.045 Z  M 2585.44 326.901 C 2569.567 382.242 2549.833 439.299 2527.525 496.356 C 2509.936 462.036 2491.489 427.716 2471.326 393.396 C 2451.592 359.076 2430.571 325.614 2409.55 293.009 C 2470.468 302.019 2529.241 313.173 2585.44 326.901 Z  M 2388.958 783.787 C 2355.495 841.702 2321.175 896.614 2285.568 947.666 C 2221.647 953.243 2156.868 956.246 2091.66 956.246 C 2026.88 956.246 1962.101 953.243 1898.609 948.095 C 1863.002 897.043 1828.253 842.56 1794.791 785.074 C 1762.187 728.875 1732.585 671.818 1705.558 614.332 C 1732.156 556.845 1762.187 499.359 1794.362 443.16 C 1827.824 385.245 1862.144 330.333 1897.751 279.281 C 1961.672 273.704 2026.451 270.701 2091.66 270.701 C 2156.439 270.701 2221.218 273.704 2284.71 278.852 C 2320.317 329.904 2355.066 384.387 2388.529 441.873 C 2421.133 498.072 2450.734 555.129 2477.761 612.616 C 2450.734 670.102 2421.133 727.588 2388.958 783.787 Z  M 2527.525 728.017 C 2550.691 785.503 2570.425 842.989 2586.727 898.759 C 2530.528 912.487 2471.326 924.071 2409.979 933.08 C 2431 900.046 2452.021 866.155 2471.755 831.406 C 2491.489 797.086 2509.936 762.337 2527.525 728.017 Z  M 2092.518 1185.761 C 2052.62 1144.577 2012.723 1098.674 1973.255 1048.481 C 2011.865 1050.197 2051.333 1051.484 2091.231 1051.484 C 2131.557 1051.484 2171.454 1050.626 2210.493 1048.481 C 2171.883 1098.674 2131.986 1144.577 2092.518 1185.761 Z  M 1773.341 933.08 C 1712.422 924.071 1653.649 912.916 1597.45 899.188 C 1613.323 843.847 1633.057 786.79 1655.365 729.733 C 1672.954 764.053 1691.401 798.373 1711.564 832.693 C 1731.727 867.013 1752.32 900.475 1773.341 933.08 Z  M 2090.373 40.328 C 2130.27 81.512 2170.167 127.415 2209.635 177.608 C 2171.025 175.892 2131.557 174.605 2091.66 174.605 C 2051.333 174.605 2011.436 175.463 1972.397 177.608 C 2011.007 127.415 2050.904 81.512 2090.373 40.328 Z  M 1772.912 293.009 C 1751.891 326.043 1730.869 359.934 1711.135 394.683 C 1691.401 429.003 1672.954 463.323 1655.365 497.643 C 1632.199 440.157 1612.465 382.671 1596.163 326.901 C 1652.362 313.602 1711.564 302.019 1772.912 293.009 L 1772.912 293.009 Z  M 1384.665 830.119 C 1232.799 765.34 1134.558 680.398 1134.558 613.045 C 1134.558 545.691 1232.799 460.32 1384.665 395.97 C 1421.559 380.097 1461.886 365.94 1503.499 352.641 C 1527.952 436.725 1560.127 524.241 1600.024 613.903 C 1560.556 703.135 1528.81 790.222 1504.786 873.877 C 1462.315 860.578 1421.988 845.992 1384.665 830.119 Z  M 1615.468 1443.162 C 1557.124 1409.7 1531.813 1282.287 1551.547 1118.408 C 1556.266 1078.082 1563.988 1035.611 1573.426 992.282 C 1657.51 1012.874 1749.317 1028.747 1845.842 1039.043 C 1903.757 1118.408 1963.817 1190.48 2024.306 1253.544 C 1884.452 1383.531 1753.178 1454.745 1663.945 1454.745 C 1644.64 1454.316 1628.338 1450.455 1615.468 1443.162 L 1615.468 1443.162 Z  M 2633.059 1116.263 C 2653.222 1280.142 2628.34 1407.555 2570.425 1441.446 C 2557.555 1449.168 2540.824 1452.6 2521.09 1452.6 C 2432.287 1452.6 2300.583 1381.815 2160.729 1252.686 C 2220.789 1189.622 2280.849 1117.979 2337.906 1038.614 C 2434.861 1028.318 2526.667 1012.445 2610.751 991.424 C 2620.618 1034.753 2628.34 1076.366 2633.059 1116.263 L 2633.059 1116.263 Z  M 2798.225 830.119 C 2761.331 845.992 2721.005 860.149 2679.392 873.448 C 2654.938 789.364 2622.763 701.848 2582.866 612.187 C 2622.334 522.954 2654.08 435.867 2678.105 352.212 C 2720.576 365.511 2760.902 380.097 2798.654 395.97 C 2950.52 460.749 3048.762 545.691 3048.762 613.045 C 3048.333 680.398 2950.091 765.769 2798.225 830.119 L 2798.225 830.119 Z " fill="rgb(97,218,251)"/><circle vector-effect="non-scaling-stroke" cx="2091.230616107715" cy="613.0445163144645" r="196.05363017064974" fill="rgb(97,218,251)"/></g></svg>