<?xml version="1.0" encoding="UTF-8" standalone="no"?><!-- Generator: Gravit.io --><svg xmlns="http://www.w3.org/2000/svg" xmlns:xlink="http://www.w3.org/1999/xlink" style="isolation:isolate" viewBox="866.319 -635.5 2450.681 2496.66" width="2450.681pt" height="2496.66pt"><path d=" M 2304.972 -349.391 L 2818.34 -52.98 C 2833.162 -68.662 2850.17 -82.122 2868.839 -92.941 C 2975.304 -154.151 3111.106 -117.809 3172.949 -11.335 C 3234.158 95.139 3197.816 230.932 3091.343 292.775 C 3072.813 303.446 3052.845 311.397 3032.052 316.384 L 3032.052 909.424 C 3052.618 914.419 3072.368 922.316 3090.709 932.876 C 3197.816 994.719 3234.158 1130.521 3172.315 1236.995 C 3111.106 1343.46 2974.67 1379.802 2868.197 1318.601 C 2847.57 1306.767 2828.988 1291.682 2813.167 1273.927 L 2302.923 1568.516 C 2310.396 1591.142 2314.191 1614.82 2314.163 1638.648 C 2314.163 1761.057 2214.712 1861.16 2091.66 1861.16 C 1968.608 1861.16 1869.156 1761.691 1869.156 1638.648 C 1869.156 1616.775 1872.298 1595.648 1878.157 1575.694 L 1364.927 1279.369 C 1350.268 1294.74 1333.499 1307.95 1315.123 1318.601 C 1208.015 1379.802 1072.213 1343.46 1011.004 1236.995 C 949.803 1130.521 986.145 994.719 1092.61 932.876 C 1110.951 922.314 1130.701 914.414 1151.268 909.415 L 1151.268 316.384 C 1130.474 311.397 1110.506 303.446 1091.977 292.775 C 985.503 231.575 949.161 95.139 1010.37 -11.335 C 1071.579 -117.809 1208.007 -154.151 1314.48 -92.941 C 1333.047 -82.179 1349.972 -68.806 1364.736 -53.232 L 1878.252 -349.721 C 1872.199 -370.267 1869.135 -391.577 1869.156 -412.996 C 1869.156 -536.031 1968.608 -635.5 2091.66 -635.5 C 2214.712 -635.5 2314.163 -536.039 2314.163 -412.996 C 2314.163 -390.88 2310.952 -369.537 2304.972 -349.391 Z  M 2251.487 -258.064 L 2766.08 39.042 C 2749.524 96.914 2757.157 159.027 2787.232 211.169 C 2818.557 265.66 2869.585 301.785 2926.22 315.863 L 2926.22 909.641 C 2923.33 910.344 2920.457 911.116 2917.601 911.932 L 2245.507 -252.118 C 2247.538 -254.062 2249.534 -256.041 2251.487 -258.055 L 2251.487 -258.064 Z  M 1937.951 -251.988 L 1265.865 912.045 C 1262.959 911.205 1260.037 910.423 1257.099 909.701 L 1257.099 315.863 C 1313.734 301.785 1364.762 265.66 1396.087 211.169 C 1426.223 158.925 1433.827 96.674 1417.152 38.712 L 1931.598 -258.307 C 1933.672 -256.163 1935.79 -254.054 1937.951 -251.997 L 1937.951 -251.988 Z  M 2153.832 -199.259 L 2825.762 964.514 C 2810.37 979.2 2797.177 996.03 2786.59 1014.483 C 2776.03 1032.823 2768.133 1052.574 2763.138 1073.14 L 1420.199 1073.14 C 1415.197 1052.573 1407.295 1032.823 1396.729 1014.483 C 1386.105 996.157 1372.937 979.43 1357.618 964.8 L 2029.678 -199.207 C 2049.827 -193.405 2070.692 -190.472 2091.66 -190.492 C 2113.246 -190.492 2134.103 -193.548 2153.832 -199.259 Z  M 2256.209 1488.749 L 2767.46 1193.571 C 2765.928 1188.752 2764.558 1183.883 2763.355 1178.971 L 1419.913 1178.971 C 1419.201 1181.862 1418.428 1184.726 1417.604 1187.582 L 1931.354 1484.21 C 1973.277 1440.618 2031.18 1416.032 2091.66 1416.144 C 2154.299 1416.034 2214.067 1442.406 2256.209 1488.749 L 2256.209 1488.749 Z " fill-rule="evenodd" fill="rgb(229,53,171)"/><g><path d=" M 3317 613.08 C 3317 450.733 3113.692 296.879 2801.987 201.469 C 2873.919 -116.23 2841.95 -368.991 2701.083 -449.914 C 2668.614 -468.896 2630.65 -477.888 2589.189 -477.888 L 2589.189 -366.493 C 2612.167 -366.493 2630.65 -361.997 2646.135 -353.505 C 2714.071 -314.542 2743.543 -166.183 2720.564 24.637 C 2715.07 71.592 2706.078 121.045 2695.089 171.498 C 2597.181 147.52 2490.282 129.038 2377.889 117.049 C 2310.453 24.637 2240.519 -59.284 2170.085 -132.714 C 2332.931 -284.071 2485.787 -366.993 2589.688 -366.993 L 2589.688 -478.387 C 2452.318 -478.387 2272.488 -380.48 2090.661 -210.641 C 1908.833 -379.481 1729.003 -476.389 1591.633 -476.389 L 1591.633 -364.995 C 1695.035 -364.995 1848.39 -282.573 2011.236 -132.215 C 1941.302 -58.784 1871.368 24.637 1804.931 117.049 C 1692.038 129.038 1585.139 147.52 1487.232 171.997 C 1475.742 122.044 1467.251 73.59 1461.256 27.134 C 1437.778 -163.685 1466.751 -312.045 1534.187 -351.507 C 1549.173 -360.499 1568.655 -364.495 1591.633 -364.495 L 1591.633 -475.89 C 1549.673 -475.89 1511.708 -466.898 1478.74 -447.916 C 1338.373 -366.993 1306.902 -114.731 1379.334 201.969 C 1068.628 297.878 866.319 451.233 866.319 613.08 C 866.319 775.426 1069.627 929.281 1381.332 1024.69 C 1309.4 1342.39 1341.37 1595.15 1482.236 1676.074 C 1514.706 1695.056 1552.67 1704.047 1594.63 1704.047 C 1732 1704.047 1911.83 1606.14 2093.658 1436.301 C 2275.486 1605.141 2455.315 1702.049 2592.685 1702.049 C 2634.646 1702.049 2672.61 1693.058 2705.579 1674.076 C 2845.946 1593.152 2877.416 1340.891 2804.985 1024.191 C 3114.691 928.781 3317 774.927 3317 613.08 L 3317 613.08 Z  M 2666.616 279.895 C 2648.133 344.334 2625.155 410.771 2599.179 477.208 C 2578.699 437.246 2557.219 397.284 2533.741 357.322 C 2510.763 317.36 2486.286 278.397 2461.809 240.432 C 2532.742 250.923 2601.177 263.91 2666.616 279.895 Z  M 2437.832 811.892 C 2398.869 879.328 2358.907 943.267 2317.446 1002.711 C 2243.016 1009.205 2167.588 1012.702 2091.66 1012.702 C 2016.231 1012.702 1940.802 1009.205 1866.872 1003.211 C 1825.412 943.767 1784.95 880.327 1745.987 813.39 C 1708.023 747.952 1673.555 681.515 1642.085 614.578 C 1673.056 547.642 1708.023 480.705 1745.487 415.267 C 1784.45 347.831 1824.413 283.891 1865.873 224.448 C 1940.303 217.954 2015.731 214.457 2091.66 214.457 C 2167.088 214.457 2242.517 217.954 2316.447 223.948 C 2357.908 283.392 2398.369 346.832 2437.332 413.768 C 2475.297 479.206 2509.764 545.644 2541.234 612.58 C 2509.764 679.517 2475.297 746.454 2437.832 811.892 Z  M 2599.179 746.953 C 2626.154 813.89 2649.132 880.826 2668.114 945.765 C 2602.676 961.75 2533.741 975.237 2462.309 985.727 C 2486.786 947.264 2511.263 907.801 2534.241 867.339 C 2557.219 827.377 2578.699 786.915 2599.179 746.953 Z  M 2092.659 1279.949 C 2046.203 1231.994 1999.747 1178.545 1953.79 1120.1 C 1998.748 1122.098 2044.704 1123.597 2091.16 1123.597 C 2138.116 1123.597 2184.572 1122.598 2230.029 1120.1 C 2185.071 1178.545 2138.615 1231.994 2092.659 1279.949 Z  M 1721.01 985.727 C 1650.078 975.237 1581.642 962.249 1516.204 946.264 C 1534.687 881.825 1557.665 815.388 1583.64 748.951 C 1604.121 788.913 1625.601 828.876 1649.078 868.838 C 1672.556 908.8 1696.534 947.763 1721.01 985.727 Z  M 2090.161 -53.789 C 2136.617 -5.835 2183.073 47.615 2229.03 106.06 C 2184.072 104.061 2138.116 102.563 2091.66 102.563 C 2044.704 102.563 1998.248 103.562 1952.791 106.06 C 1997.748 47.615 2044.205 -5.835 2090.161 -53.789 Z  M 1720.511 240.432 C 1696.034 278.896 1671.557 318.359 1648.579 358.82 C 1625.601 398.783 1604.121 438.745 1583.64 478.707 C 1556.666 411.77 1533.688 344.834 1514.706 279.895 C 1580.144 264.41 1649.078 250.923 1720.511 240.432 L 1720.511 240.432 Z  M 1268.439 865.841 C 1091.606 790.412 977.214 691.506 977.214 613.08 C 977.214 534.654 1091.606 435.248 1268.439 360.319 C 1311.398 341.836 1358.354 325.352 1406.808 309.867 C 1435.281 407.774 1472.745 509.678 1519.201 614.079 C 1473.245 717.981 1436.28 819.385 1408.306 916.792 C 1358.853 901.307 1311.898 884.323 1268.439 865.841 Z  M 1537.184 1579.665 C 1469.249 1540.702 1439.777 1392.342 1462.755 1201.523 C 1468.25 1154.567 1477.241 1105.114 1488.231 1054.662 C 1586.138 1078.639 1693.037 1097.122 1805.43 1109.11 C 1872.867 1201.523 1942.8 1285.443 2013.234 1358.874 C 1850.388 1510.231 1697.533 1593.152 1593.631 1593.152 C 1571.152 1592.653 1552.17 1588.157 1537.184 1579.665 L 1537.184 1579.665 Z  M 2722.063 1199.025 C 2745.541 1389.845 2716.568 1538.204 2649.132 1577.667 C 2634.146 1586.658 2614.665 1590.655 2591.686 1590.655 C 2488.284 1590.655 2334.929 1508.233 2172.084 1357.875 C 2242.017 1284.444 2311.951 1201.023 2378.388 1108.611 C 2491.281 1096.622 2598.18 1078.14 2696.088 1053.663 C 2707.577 1104.115 2716.568 1152.569 2722.063 1199.025 L 2722.063 1199.025 Z  M 2914.381 865.841 C 2871.422 884.323 2824.466 900.807 2776.012 916.293 C 2747.539 818.385 2710.074 716.482 2663.618 612.081 C 2709.575 508.179 2746.54 406.775 2774.513 309.367 C 2823.967 324.853 2870.922 341.836 2914.881 360.319 C 3091.713 435.748 3206.105 534.654 3206.105 613.08 C 3205.605 691.506 3091.214 790.911 2914.381 865.841 L 2914.381 865.841 Z " fill="rgb(97,218,251)"/><circle vector-effect="non-scaling-stroke" cx="2091.160090221046" cy="613.0797792577997" r="228.28396037855828" fill="rgb(97,218,251)"/></g></svg>